<mxfile host="app.diagrams.net" modified="2024-04-30T13:58:43.208Z" agent="Mozilla/5.0 (Macintosh; Intel Mac OS X 10_15_7) AppleWebKit/537.36 (KHTML, like Gecko) Chrome/124.0.0.0 Safari/537.36" etag="J-s6TJXBW_uMhSDrTXvC" version="24.3.1" type="github" pages="7">
  <diagram name="회원가입" id="2YBvvXClWsGukQMizWep">
    <mxGraphModel dx="1020" dy="521" grid="1" gridSize="10" guides="1" tooltips="1" connect="1" arrows="1" fold="1" page="1" pageScale="1" pageWidth="850" pageHeight="1100" math="0" shadow="0">
      <root>
        <mxCell id="0" />
        <mxCell id="1" parent="0" />
        <mxCell id="lmq6LwTFipSiw43jhtWt-1" value="비회원" style="shape=umlActor;verticalLabelPosition=bottom;verticalAlign=top;html=1;outlineConnect=0;" parent="1" vertex="1">
          <mxGeometry x="100" y="80" width="30" height="60" as="geometry" />
        </mxCell>
        <mxCell id="lmq6LwTFipSiw43jhtWt-6" value="" style="endArrow=none;dashed=1;html=1;rounded=0;fontSize=12;startSize=8;endSize=8;curved=1;" parent="1" edge="1">
          <mxGeometry width="50" height="50" relative="1" as="geometry">
            <mxPoint x="114.60000000000014" y="200" as="sourcePoint" />
            <mxPoint x="114.5" y="170" as="targetPoint" />
          </mxGeometry>
        </mxCell>
        <mxCell id="lmq6LwTFipSiw43jhtWt-7" value="회원가입" style="text;html=1;align=center;verticalAlign=middle;whiteSpace=wrap;rounded=0;fontSize=16;" parent="1" vertex="1">
          <mxGeometry x="50" y="30" width="60" height="30" as="geometry" />
        </mxCell>
        <mxCell id="lmq6LwTFipSiw43jhtWt-12" value="사용자 관리 서버" style="rounded=1;whiteSpace=wrap;html=1;" parent="1" vertex="1">
          <mxGeometry x="320" y="80" width="120" height="60" as="geometry" />
        </mxCell>
        <mxCell id="lmq6LwTFipSiw43jhtWt-13" value="사용자 관리&lt;div&gt;DB&lt;/div&gt;" style="shape=cylinder3;whiteSpace=wrap;html=1;boundedLbl=1;backgroundOutline=1;size=15;" parent="1" vertex="1">
          <mxGeometry x="620" y="70" width="100" height="80" as="geometry" />
        </mxCell>
        <mxCell id="lmq6LwTFipSiw43jhtWt-14" value="" style="endArrow=none;dashed=1;html=1;dashPattern=1 3;strokeWidth=2;rounded=0;fontSize=12;startSize=8;endSize=8;curved=1;entryX=0.5;entryY=1;entryDx=0;entryDy=0;" parent="1" target="lmq6LwTFipSiw43jhtWt-12" edge="1">
          <mxGeometry width="50" height="50" relative="1" as="geometry">
            <mxPoint x="380" y="520" as="sourcePoint" />
            <mxPoint x="360" y="330" as="targetPoint" />
          </mxGeometry>
        </mxCell>
        <mxCell id="lmq6LwTFipSiw43jhtWt-15" value="" style="endArrow=none;dashed=1;html=1;rounded=0;fontSize=12;startSize=8;endSize=8;curved=1;entryX=0.5;entryY=1;entryDx=0;entryDy=0;entryPerimeter=0;" parent="1" source="lmq6LwTFipSiw43jhtWt-20" target="lmq6LwTFipSiw43jhtWt-13" edge="1">
          <mxGeometry width="50" height="50" relative="1" as="geometry">
            <mxPoint x="670" y="730" as="sourcePoint" />
            <mxPoint x="400" y="410" as="targetPoint" />
          </mxGeometry>
        </mxCell>
        <mxCell id="lmq6LwTFipSiw43jhtWt-18" value="" style="rounded=0;whiteSpace=wrap;html=1;" parent="1" vertex="1">
          <mxGeometry x="367.5" y="200" width="25" height="240" as="geometry" />
        </mxCell>
        <mxCell id="lmq6LwTFipSiw43jhtWt-16" value="1: signupBtn(id, major, pw, checkpw)" style="html=1;verticalAlign=bottom;endArrow=block;curved=0;rounded=0;fontSize=12;startSize=8;endSize=8;" parent="1" edge="1">
          <mxGeometry width="80" relative="1" as="geometry">
            <mxPoint x="117" y="220" as="sourcePoint" />
            <mxPoint x="367" y="220" as="targetPoint" />
          </mxGeometry>
        </mxCell>
        <mxCell id="lmq6LwTFipSiw43jhtWt-19" value="3: createUser(id, pw, major)" style="html=1;verticalAlign=bottom;endArrow=block;curved=0;rounded=0;fontSize=12;startSize=8;endSize=8;entryX=0;entryY=0.25;entryDx=0;entryDy=0;exitX=1.013;exitY=0.134;exitDx=0;exitDy=0;exitPerimeter=0;" parent="1" edge="1">
          <mxGeometry x="-0.0026" width="80" relative="1" as="geometry">
            <mxPoint x="392.82499999999993" y="300.15999999999997" as="sourcePoint" />
            <mxPoint x="656" y="300" as="targetPoint" />
            <mxPoint as="offset" />
          </mxGeometry>
        </mxCell>
        <mxCell id="lmq6LwTFipSiw43jhtWt-21" value="" style="endArrow=none;dashed=1;html=1;rounded=0;fontSize=12;startSize=8;endSize=8;curved=1;entryX=0.5;entryY=1;entryDx=0;entryDy=0;entryPerimeter=0;" parent="1" target="lmq6LwTFipSiw43jhtWt-20" edge="1">
          <mxGeometry width="50" height="50" relative="1" as="geometry">
            <mxPoint x="668.5" y="380.0000000000001" as="sourcePoint" />
            <mxPoint x="670" y="150" as="targetPoint" />
          </mxGeometry>
        </mxCell>
        <mxCell id="lmq6LwTFipSiw43jhtWt-20" value="" style="rounded=0;whiteSpace=wrap;html=1;" parent="1" vertex="1">
          <mxGeometry x="656" y="264" width="25" height="64" as="geometry" />
        </mxCell>
        <mxCell id="lmq6LwTFipSiw43jhtWt-24" value="" style="endArrow=none;dashed=1;html=1;rounded=0;fontSize=12;startSize=8;endSize=8;curved=1;entryX=0.5;entryY=1;entryDx=0;entryDy=0;entryPerimeter=0;" parent="1" edge="1">
          <mxGeometry width="50" height="50" relative="1" as="geometry">
            <mxPoint x="668" y="520" as="sourcePoint" />
            <mxPoint x="668.08" y="380.0000000000001" as="targetPoint" />
          </mxGeometry>
        </mxCell>
        <mxCell id="lmq6LwTFipSiw43jhtWt-25" value="" style="html=1;points=[[0,0,0,0,5],[0,1,0,0,-5],[1,0,0,0,5],[1,1,0,0,-5]];perimeter=orthogonalPerimeter;outlineConnect=0;targetShapes=umlLifeline;portConstraint=eastwest;newEdgeStyle={&quot;curved&quot;:0,&quot;rounded&quot;:0};" parent="1" vertex="1">
          <mxGeometry x="387.5" y="224" width="10" height="40" as="geometry" />
        </mxCell>
        <mxCell id="lmq6LwTFipSiw43jhtWt-26" value="2: checkPassword(pw, checkpw)" style="html=1;align=left;spacingLeft=2;endArrow=block;rounded=0;edgeStyle=orthogonalEdgeStyle;curved=0;rounded=0;fontSize=12;startSize=8;endSize=8;" parent="1" edge="1">
          <mxGeometry x="0.2331" relative="1" as="geometry">
            <mxPoint x="392.5" y="200" as="sourcePoint" />
            <Array as="points">
              <mxPoint x="422.5" y="230" />
            </Array>
            <mxPoint x="396" y="257" as="targetPoint" />
            <mxPoint as="offset" />
          </mxGeometry>
        </mxCell>
        <mxCell id="qiXM5G81pv3pnYCw4iOo-2" value="" style="endArrow=none;dashed=1;html=1;rounded=0;fontSize=12;startSize=8;endSize=8;curved=1;" parent="1" edge="1">
          <mxGeometry width="50" height="50" relative="1" as="geometry">
            <mxPoint x="115" y="520" as="sourcePoint" />
            <mxPoint x="115" y="200" as="targetPoint" />
          </mxGeometry>
        </mxCell>
        <mxCell id="P7dCZciEq1uVInMriKRR-4" value="5: 회원 가입 완료, 실패 메세지 전달" style="html=1;verticalAlign=bottom;endArrow=open;dashed=1;endSize=8;curved=0;rounded=0;fontSize=12;" parent="1" edge="1">
          <mxGeometry relative="1" as="geometry">
            <mxPoint x="367.5" y="360" as="sourcePoint" />
            <mxPoint x="120" y="360" as="targetPoint" />
            <mxPoint as="offset" />
          </mxGeometry>
        </mxCell>
        <mxCell id="Pxl3BmEbOAun1elkkA1w-1" value="4: ID 중복 시, 오류 전송 또는 회원가입 성공 전송" style="html=1;verticalAlign=bottom;endArrow=open;dashed=1;endSize=8;curved=0;rounded=0;fontSize=12;exitX=0;exitY=0.5;exitDx=0;exitDy=0;" edge="1" parent="1">
          <mxGeometry x="0.0342" y="24" relative="1" as="geometry">
            <mxPoint x="656" y="316" as="sourcePoint" />
            <mxPoint x="392.5" y="315.55" as="targetPoint" />
            <mxPoint as="offset" />
          </mxGeometry>
        </mxCell>
      </root>
    </mxGraphModel>
  </diagram>
  <diagram name="로그인" id="xfcTjQgRxjcba2ydF7YO">
    <mxGraphModel dx="1530" dy="781" grid="1" gridSize="10" guides="1" tooltips="1" connect="1" arrows="1" fold="1" page="1" pageScale="1" pageWidth="850" pageHeight="1100" math="0" shadow="0">
      <root>
        <mxCell id="_w-2rEdW2O8Vtb92VAKG-0" />
        <mxCell id="_w-2rEdW2O8Vtb92VAKG-1" parent="_w-2rEdW2O8Vtb92VAKG-0" />
        <mxCell id="_w-2rEdW2O8Vtb92VAKG-2" value="회원" style="shape=umlActor;verticalLabelPosition=bottom;verticalAlign=top;html=1;outlineConnect=0;" parent="_w-2rEdW2O8Vtb92VAKG-1" vertex="1">
          <mxGeometry x="100" y="80" width="30" height="60" as="geometry" />
        </mxCell>
        <mxCell id="_w-2rEdW2O8Vtb92VAKG-4" value="로그인" style="text;html=1;align=center;verticalAlign=middle;whiteSpace=wrap;rounded=0;fontSize=16;" parent="_w-2rEdW2O8Vtb92VAKG-1" vertex="1">
          <mxGeometry x="50" y="30" width="60" height="30" as="geometry" />
        </mxCell>
        <mxCell id="_w-2rEdW2O8Vtb92VAKG-5" value="사용자 관리 서버" style="rounded=1;whiteSpace=wrap;html=1;" parent="_w-2rEdW2O8Vtb92VAKG-1" vertex="1">
          <mxGeometry x="320" y="80" width="120" height="60" as="geometry" />
        </mxCell>
        <mxCell id="_w-2rEdW2O8Vtb92VAKG-6" value="사용자 관리&lt;div&gt;DB&lt;/div&gt;" style="shape=cylinder3;whiteSpace=wrap;html=1;boundedLbl=1;backgroundOutline=1;size=15;" parent="_w-2rEdW2O8Vtb92VAKG-1" vertex="1">
          <mxGeometry x="620" y="70" width="100" height="80" as="geometry" />
        </mxCell>
        <mxCell id="_w-2rEdW2O8Vtb92VAKG-7" value="" style="endArrow=none;dashed=1;html=1;dashPattern=1 3;strokeWidth=2;rounded=0;fontSize=12;startSize=8;endSize=8;curved=1;entryX=0.5;entryY=1;entryDx=0;entryDy=0;" parent="_w-2rEdW2O8Vtb92VAKG-1" target="_w-2rEdW2O8Vtb92VAKG-5" edge="1">
          <mxGeometry width="50" height="50" relative="1" as="geometry">
            <mxPoint x="380" y="420" as="sourcePoint" />
            <mxPoint x="360" y="330" as="targetPoint" />
          </mxGeometry>
        </mxCell>
        <mxCell id="_w-2rEdW2O8Vtb92VAKG-8" value="" style="endArrow=none;dashed=1;html=1;rounded=0;fontSize=12;startSize=8;endSize=8;curved=1;entryX=0.5;entryY=1;entryDx=0;entryDy=0;entryPerimeter=0;" parent="_w-2rEdW2O8Vtb92VAKG-1" source="_w-2rEdW2O8Vtb92VAKG-13" target="_w-2rEdW2O8Vtb92VAKG-6" edge="1">
          <mxGeometry width="50" height="50" relative="1" as="geometry">
            <mxPoint x="670" y="730" as="sourcePoint" />
            <mxPoint x="400" y="410" as="targetPoint" />
          </mxGeometry>
        </mxCell>
        <mxCell id="_w-2rEdW2O8Vtb92VAKG-9" value="" style="rounded=0;whiteSpace=wrap;html=1;" parent="_w-2rEdW2O8Vtb92VAKG-1" vertex="1">
          <mxGeometry x="367.5" y="200" width="25" height="170" as="geometry" />
        </mxCell>
        <mxCell id="_w-2rEdW2O8Vtb92VAKG-10" value="1: loginBtn(id, password)" style="html=1;verticalAlign=bottom;endArrow=block;curved=0;rounded=0;fontSize=12;startSize=8;endSize=8;" parent="_w-2rEdW2O8Vtb92VAKG-1" edge="1">
          <mxGeometry x="-0.0024" width="80" relative="1" as="geometry">
            <mxPoint x="120" y="220" as="sourcePoint" />
            <mxPoint x="370" y="220" as="targetPoint" />
            <mxPoint as="offset" />
          </mxGeometry>
        </mxCell>
        <mxCell id="_w-2rEdW2O8Vtb92VAKG-11" value="2: getUser(id, password)" style="html=1;verticalAlign=bottom;endArrow=block;curved=0;rounded=0;fontSize=12;startSize=8;endSize=8;entryX=0;entryY=0.5;entryDx=0;entryDy=0;" parent="_w-2rEdW2O8Vtb92VAKG-1" edge="1">
          <mxGeometry x="-0.0006" width="80" relative="1" as="geometry">
            <mxPoint x="392.5" y="250" as="sourcePoint" />
            <mxPoint x="656" y="251" as="targetPoint" />
            <mxPoint as="offset" />
          </mxGeometry>
        </mxCell>
        <mxCell id="_w-2rEdW2O8Vtb92VAKG-12" value="" style="endArrow=none;dashed=1;html=1;rounded=0;fontSize=12;startSize=8;endSize=8;curved=1;entryX=0.5;entryY=1;entryDx=0;entryDy=0;entryPerimeter=0;" parent="_w-2rEdW2O8Vtb92VAKG-1" target="_w-2rEdW2O8Vtb92VAKG-13" edge="1">
          <mxGeometry width="50" height="50" relative="1" as="geometry">
            <mxPoint x="669" y="410" as="sourcePoint" />
            <mxPoint x="670" y="150" as="targetPoint" />
          </mxGeometry>
        </mxCell>
        <mxCell id="_w-2rEdW2O8Vtb92VAKG-13" value="" style="rounded=0;whiteSpace=wrap;html=1;" parent="_w-2rEdW2O8Vtb92VAKG-1" vertex="1">
          <mxGeometry x="656" y="240" width="25" height="30" as="geometry" />
        </mxCell>
        <mxCell id="_w-2rEdW2O8Vtb92VAKG-21" value="" style="endArrow=none;dashed=1;html=1;rounded=0;fontSize=12;startSize=8;endSize=8;curved=1;" parent="_w-2rEdW2O8Vtb92VAKG-1" edge="1">
          <mxGeometry width="50" height="50" relative="1" as="geometry">
            <mxPoint x="115" y="440" as="sourcePoint" />
            <mxPoint x="115" y="325" as="targetPoint" />
          </mxGeometry>
        </mxCell>
        <mxCell id="_w-2rEdW2O8Vtb92VAKG-26" value="" style="endArrow=none;dashed=1;html=1;rounded=0;fontSize=12;startSize=8;endSize=8;curved=1;" parent="_w-2rEdW2O8Vtb92VAKG-1" edge="1">
          <mxGeometry width="50" height="50" relative="1" as="geometry">
            <mxPoint x="115" y="295" as="sourcePoint" />
            <mxPoint x="115" y="170" as="targetPoint" />
          </mxGeometry>
        </mxCell>
        <mxCell id="_w-2rEdW2O8Vtb92VAKG-27" value="" style="rounded=0;whiteSpace=wrap;html=1;" parent="_w-2rEdW2O8Vtb92VAKG-1" vertex="1">
          <mxGeometry x="100" y="200" width="30" height="180" as="geometry" />
        </mxCell>
        <mxCell id="0CB9_bkX4wnjLnhcxF2E-0" value="3: 예외 상황 메시지 또는 로그인 성공 전송" style="html=1;verticalAlign=bottom;endArrow=open;dashed=1;endSize=8;curved=0;rounded=0;fontSize=12;exitX=0;exitY=0.5;exitDx=0;exitDy=0;" edge="1" parent="_w-2rEdW2O8Vtb92VAKG-1">
          <mxGeometry x="0.0314" y="24" relative="1" as="geometry">
            <mxPoint x="656" y="260.45" as="sourcePoint" />
            <mxPoint x="392.5" y="260" as="targetPoint" />
            <mxPoint as="offset" />
          </mxGeometry>
        </mxCell>
        <mxCell id="0CB9_bkX4wnjLnhcxF2E-2" value="4: 로그인 성공, 실패 메세지 전달" style="html=1;verticalAlign=bottom;endArrow=open;dashed=1;endSize=8;curved=0;rounded=0;fontSize=12;" edge="1" parent="_w-2rEdW2O8Vtb92VAKG-1">
          <mxGeometry x="-0.0003" y="20" relative="1" as="geometry">
            <mxPoint x="367.5" y="320.5" as="sourcePoint" />
            <mxPoint x="127.5" y="320" as="targetPoint" />
            <mxPoint as="offset" />
          </mxGeometry>
        </mxCell>
      </root>
    </mxGraphModel>
  </diagram>
  <diagram name="잔여 좌석 조회" id="xvWgONUb2aXQiGLllSk1">
    <mxGraphModel dx="874" dy="446" grid="1" gridSize="10" guides="1" tooltips="1" connect="1" arrows="1" fold="1" page="1" pageScale="1" pageWidth="850" pageHeight="1100" math="0" shadow="0">
      <root>
        <mxCell id="2KBXHVVGUYB0KBsjJUZ5-0" />
        <mxCell id="2KBXHVVGUYB0KBsjJUZ5-1" parent="2KBXHVVGUYB0KBsjJUZ5-0" />
        <mxCell id="2KBXHVVGUYB0KBsjJUZ5-2" value="회원" style="shape=umlActor;verticalLabelPosition=bottom;verticalAlign=top;html=1;outlineConnect=0;" parent="2KBXHVVGUYB0KBsjJUZ5-1" vertex="1">
          <mxGeometry x="100" y="80" width="30" height="60" as="geometry" />
        </mxCell>
        <mxCell id="2KBXHVVGUYB0KBsjJUZ5-3" value="" style="endArrow=none;dashed=1;html=1;rounded=0;fontSize=12;startSize=8;endSize=8;curved=1;" parent="2KBXHVVGUYB0KBsjJUZ5-1" source="2KBXHVVGUYB0KBsjJUZ5-27" edge="1">
          <mxGeometry width="50" height="50" relative="1" as="geometry">
            <mxPoint x="114" y="720" as="sourcePoint" />
            <mxPoint x="114.5" y="170" as="targetPoint" />
          </mxGeometry>
        </mxCell>
        <mxCell id="2KBXHVVGUYB0KBsjJUZ5-4" value="잔여 좌석 조회" style="text;html=1;align=center;verticalAlign=middle;whiteSpace=wrap;rounded=0;fontSize=16;" parent="2KBXHVVGUYB0KBsjJUZ5-1" vertex="1">
          <mxGeometry x="50" y="30" width="170" height="30" as="geometry" />
        </mxCell>
        <mxCell id="2KBXHVVGUYB0KBsjJUZ5-5" value="좌석 관리 서버" style="rounded=1;whiteSpace=wrap;html=1;" parent="2KBXHVVGUYB0KBsjJUZ5-1" vertex="1">
          <mxGeometry x="320" y="80" width="120" height="60" as="geometry" />
        </mxCell>
        <mxCell id="2KBXHVVGUYB0KBsjJUZ5-6" value="좌석 관리&lt;div&gt;DB&lt;/div&gt;" style="shape=cylinder3;whiteSpace=wrap;html=1;boundedLbl=1;backgroundOutline=1;size=15;" parent="2KBXHVVGUYB0KBsjJUZ5-1" vertex="1">
          <mxGeometry x="620" y="70" width="100" height="80" as="geometry" />
        </mxCell>
        <mxCell id="2KBXHVVGUYB0KBsjJUZ5-7" value="" style="endArrow=none;dashed=1;html=1;dashPattern=1 3;strokeWidth=2;rounded=0;fontSize=12;startSize=8;endSize=8;curved=1;entryX=0.5;entryY=1;entryDx=0;entryDy=0;" parent="2KBXHVVGUYB0KBsjJUZ5-1" target="2KBXHVVGUYB0KBsjJUZ5-5" edge="1">
          <mxGeometry width="50" height="50" relative="1" as="geometry">
            <mxPoint x="380" y="390" as="sourcePoint" />
            <mxPoint x="360" y="330" as="targetPoint" />
          </mxGeometry>
        </mxCell>
        <mxCell id="2KBXHVVGUYB0KBsjJUZ5-8" value="" style="endArrow=none;dashed=1;html=1;rounded=0;fontSize=12;startSize=8;endSize=8;curved=1;entryX=0.5;entryY=1;entryDx=0;entryDy=0;entryPerimeter=0;" parent="2KBXHVVGUYB0KBsjJUZ5-1" source="2KBXHVVGUYB0KBsjJUZ5-13" target="2KBXHVVGUYB0KBsjJUZ5-6" edge="1">
          <mxGeometry width="50" height="50" relative="1" as="geometry">
            <mxPoint x="670" y="730" as="sourcePoint" />
            <mxPoint x="400" y="410" as="targetPoint" />
          </mxGeometry>
        </mxCell>
        <mxCell id="2KBXHVVGUYB0KBsjJUZ5-9" value="" style="rounded=0;whiteSpace=wrap;html=1;" parent="2KBXHVVGUYB0KBsjJUZ5-1" vertex="1">
          <mxGeometry x="367.5" y="200" width="25" height="170" as="geometry" />
        </mxCell>
        <mxCell id="2KBXHVVGUYB0KBsjJUZ5-10" value="1: searchBtn(location)" style="html=1;verticalAlign=bottom;endArrow=block;curved=0;rounded=0;fontSize=12;startSize=8;endSize=8;" parent="2KBXHVVGUYB0KBsjJUZ5-1" edge="1">
          <mxGeometry x="0.04" width="80" relative="1" as="geometry">
            <mxPoint x="120" y="220" as="sourcePoint" />
            <mxPoint x="370" y="220" as="targetPoint" />
            <mxPoint as="offset" />
          </mxGeometry>
        </mxCell>
        <mxCell id="2KBXHVVGUYB0KBsjJUZ5-12" value="" style="endArrow=none;dashed=1;html=1;rounded=0;fontSize=12;startSize=8;endSize=8;curved=1;entryX=0.5;entryY=1;entryDx=0;entryDy=0;entryPerimeter=0;" parent="2KBXHVVGUYB0KBsjJUZ5-1" target="2KBXHVVGUYB0KBsjJUZ5-13" edge="1">
          <mxGeometry width="50" height="50" relative="1" as="geometry">
            <mxPoint x="668.5" y="380" as="sourcePoint" />
            <mxPoint x="670" y="150" as="targetPoint" />
          </mxGeometry>
        </mxCell>
        <mxCell id="2KBXHVVGUYB0KBsjJUZ5-13" value="" style="rounded=0;whiteSpace=wrap;html=1;" parent="2KBXHVVGUYB0KBsjJUZ5-1" vertex="1">
          <mxGeometry x="657.5" y="226" width="25" height="54" as="geometry" />
        </mxCell>
        <mxCell id="2KBXHVVGUYB0KBsjJUZ5-14" value="2: getLocation(locationID)" style="html=1;verticalAlign=bottom;endArrow=block;curved=0;rounded=0;fontSize=12;startSize=8;endSize=8;entryX=0;entryY=0.5;entryDx=0;entryDy=0;" parent="2KBXHVVGUYB0KBsjJUZ5-1" edge="1">
          <mxGeometry x="-0.0006" width="80" relative="1" as="geometry">
            <mxPoint x="392.5" y="240" as="sourcePoint" />
            <mxPoint x="656" y="241" as="targetPoint" />
            <mxPoint as="offset" />
          </mxGeometry>
        </mxCell>
        <mxCell id="2KBXHVVGUYB0KBsjJUZ5-21" value="" style="endArrow=none;dashed=1;html=1;rounded=0;fontSize=12;startSize=8;endSize=8;curved=1;entryX=0.5;entryY=1;entryDx=0;entryDy=0;" parent="2KBXHVVGUYB0KBsjJUZ5-1" target="2KBXHVVGUYB0KBsjJUZ5-27" edge="1">
          <mxGeometry width="50" height="50" relative="1" as="geometry">
            <mxPoint x="115" y="410" as="sourcePoint" />
            <mxPoint x="115" y="325" as="targetPoint" />
          </mxGeometry>
        </mxCell>
        <mxCell id="2KBXHVVGUYB0KBsjJUZ5-26" value="" style="endArrow=none;dashed=1;html=1;rounded=0;fontSize=12;startSize=8;endSize=8;curved=1;" parent="2KBXHVVGUYB0KBsjJUZ5-1" target="2KBXHVVGUYB0KBsjJUZ5-27" edge="1">
          <mxGeometry width="50" height="50" relative="1" as="geometry">
            <mxPoint x="115" y="295" as="sourcePoint" />
            <mxPoint x="114.5" y="170" as="targetPoint" />
          </mxGeometry>
        </mxCell>
        <mxCell id="2KBXHVVGUYB0KBsjJUZ5-27" value="" style="rounded=0;whiteSpace=wrap;html=1;" parent="2KBXHVVGUYB0KBsjJUZ5-1" vertex="1">
          <mxGeometry x="100" y="200" width="30" height="170" as="geometry" />
        </mxCell>
        <mxCell id="nW3mKr6mxA57iR2Dk-kb-0" value="3: 해당 장소 좌석 정보 전송" style="html=1;verticalAlign=bottom;endArrow=open;dashed=1;endSize=8;curved=0;rounded=0;fontSize=12;exitX=0;exitY=0.5;exitDx=0;exitDy=0;" edge="1" parent="2KBXHVVGUYB0KBsjJUZ5-1">
          <mxGeometry x="0.0301" y="24" relative="1" as="geometry">
            <mxPoint x="656" y="260.45" as="sourcePoint" />
            <mxPoint x="392.5" y="260" as="targetPoint" />
            <mxPoint as="offset" />
          </mxGeometry>
        </mxCell>
        <mxCell id="nW3mKr6mxA57iR2Dk-kb-1" value="4: 해당 장소 좌석 정보 보여주기" style="html=1;verticalAlign=bottom;endArrow=open;dashed=1;endSize=8;curved=0;rounded=0;fontSize=12;exitX=0.009;exitY=0.346;exitDx=0;exitDy=0;exitPerimeter=0;entryX=0.975;entryY=0.346;entryDx=0;entryDy=0;entryPerimeter=0;" edge="1" parent="2KBXHVVGUYB0KBsjJUZ5-1">
          <mxGeometry x="0.0304" y="24" relative="1" as="geometry">
            <mxPoint x="368.475" y="329.99999999999994" as="sourcePoint" />
            <mxPoint x="130" y="329.99999999999994" as="targetPoint" />
            <mxPoint as="offset" />
          </mxGeometry>
        </mxCell>
      </root>
    </mxGraphModel>
  </diagram>
  <diagram name="좌석 배정 신청" id="WIGZHKo7qlWPfyPU66E1">
    <mxGraphModel dx="2040" dy="1042" grid="1" gridSize="10" guides="1" tooltips="1" connect="1" arrows="1" fold="1" page="1" pageScale="1" pageWidth="850" pageHeight="1100" math="0" shadow="0">
      <root>
        <mxCell id="PpwfPjqyfCliycpSLVlc-0" />
        <mxCell id="PpwfPjqyfCliycpSLVlc-1" parent="PpwfPjqyfCliycpSLVlc-0" />
        <mxCell id="4zJOaKiFR_U7AnjllImi-12" value="" style="endArrow=none;dashed=1;html=1;rounded=0;fontSize=12;startSize=8;endSize=8;curved=1;entryX=0.5;entryY=1;entryDx=0;entryDy=0;entryPerimeter=0;" parent="PpwfPjqyfCliycpSLVlc-1" edge="1">
          <mxGeometry width="50" height="50" relative="1" as="geometry">
            <mxPoint x="309" y="780" as="sourcePoint" />
            <mxPoint x="309.25" y="550" as="targetPoint" />
          </mxGeometry>
        </mxCell>
        <mxCell id="PpwfPjqyfCliycpSLVlc-2" value="회원" style="shape=umlActor;verticalLabelPosition=bottom;verticalAlign=top;html=1;outlineConnect=0;" parent="PpwfPjqyfCliycpSLVlc-1" vertex="1">
          <mxGeometry x="30" y="100" width="30" height="60" as="geometry" />
        </mxCell>
        <mxCell id="PpwfPjqyfCliycpSLVlc-3" value="" style="endArrow=none;dashed=1;html=1;rounded=0;fontSize=12;startSize=8;endSize=8;curved=1;" parent="PpwfPjqyfCliycpSLVlc-1" source="PpwfPjqyfCliycpSLVlc-18" edge="1">
          <mxGeometry width="50" height="50" relative="1" as="geometry">
            <mxPoint x="44" y="740" as="sourcePoint" />
            <mxPoint x="44.5" y="190" as="targetPoint" />
          </mxGeometry>
        </mxCell>
        <mxCell id="PpwfPjqyfCliycpSLVlc-4" value="좌석 배정 신청" style="text;html=1;align=center;verticalAlign=middle;whiteSpace=wrap;rounded=0;fontSize=16;" parent="PpwfPjqyfCliycpSLVlc-1" vertex="1">
          <mxGeometry x="50" y="30" width="170" height="30" as="geometry" />
        </mxCell>
        <mxCell id="PpwfPjqyfCliycpSLVlc-5" value="좌석 관리 서버" style="rounded=1;whiteSpace=wrap;html=1;" parent="PpwfPjqyfCliycpSLVlc-1" vertex="1">
          <mxGeometry x="250" y="100" width="120" height="60" as="geometry" />
        </mxCell>
        <mxCell id="PpwfPjqyfCliycpSLVlc-6" value="좌석 관리&lt;div&gt;DB&lt;/div&gt;" style="shape=cylinder3;whiteSpace=wrap;html=1;boundedLbl=1;backgroundOutline=1;size=15;" parent="PpwfPjqyfCliycpSLVlc-1" vertex="1">
          <mxGeometry x="460" y="90" width="100" height="80" as="geometry" />
        </mxCell>
        <mxCell id="PpwfPjqyfCliycpSLVlc-7" value="" style="endArrow=none;dashed=1;html=1;dashPattern=1 3;strokeWidth=2;rounded=0;fontSize=12;startSize=8;endSize=8;curved=1;entryX=0.5;entryY=1;entryDx=0;entryDy=0;" parent="PpwfPjqyfCliycpSLVlc-1" target="PpwfPjqyfCliycpSLVlc-5" edge="1">
          <mxGeometry width="50" height="50" relative="1" as="geometry">
            <mxPoint x="310" y="410" as="sourcePoint" />
            <mxPoint x="290" y="350" as="targetPoint" />
          </mxGeometry>
        </mxCell>
        <mxCell id="PpwfPjqyfCliycpSLVlc-8" value="" style="endArrow=none;dashed=1;html=1;rounded=0;fontSize=12;startSize=8;endSize=8;curved=1;entryX=0.5;entryY=1;entryDx=0;entryDy=0;entryPerimeter=0;" parent="PpwfPjqyfCliycpSLVlc-1" source="4zJOaKiFR_U7AnjllImi-1" target="PpwfPjqyfCliycpSLVlc-6" edge="1">
          <mxGeometry width="50" height="50" relative="1" as="geometry">
            <mxPoint x="510" y="750" as="sourcePoint" />
            <mxPoint x="240" y="430" as="targetPoint" />
          </mxGeometry>
        </mxCell>
        <mxCell id="PpwfPjqyfCliycpSLVlc-9" value="" style="rounded=0;whiteSpace=wrap;html=1;" parent="PpwfPjqyfCliycpSLVlc-1" vertex="1">
          <mxGeometry x="297.5" y="220" width="25" height="440" as="geometry" />
        </mxCell>
        <mxCell id="PpwfPjqyfCliycpSLVlc-10" value="1: detailBtn(location, seatNum)" style="html=1;verticalAlign=bottom;endArrow=block;curved=0;rounded=0;fontSize=12;startSize=8;endSize=8;" parent="PpwfPjqyfCliycpSLVlc-1" edge="1">
          <mxGeometry width="80" relative="1" as="geometry">
            <mxPoint x="50" y="240" as="sourcePoint" />
            <mxPoint x="300" y="240" as="targetPoint" />
          </mxGeometry>
        </mxCell>
        <mxCell id="PpwfPjqyfCliycpSLVlc-11" value="" style="endArrow=none;dashed=1;html=1;rounded=0;fontSize=12;startSize=8;endSize=8;curved=1;entryX=0.5;entryY=1;entryDx=0;entryDy=0;entryPerimeter=0;" parent="PpwfPjqyfCliycpSLVlc-1" source="4zJOaKiFR_U7AnjllImi-18" target="PpwfPjqyfCliycpSLVlc-12" edge="1">
          <mxGeometry width="50" height="50" relative="1" as="geometry">
            <mxPoint x="509" y="700" as="sourcePoint" />
            <mxPoint x="510" y="170" as="targetPoint" />
          </mxGeometry>
        </mxCell>
        <mxCell id="PpwfPjqyfCliycpSLVlc-12" value="" style="rounded=0;whiteSpace=wrap;html=1;" parent="PpwfPjqyfCliycpSLVlc-1" vertex="1">
          <mxGeometry x="496" y="330" width="25" height="60" as="geometry" />
        </mxCell>
        <mxCell id="PpwfPjqyfCliycpSLVlc-13" value="해당 좌석이 대여가 가능한지 확인" style="html=1;verticalAlign=bottom;endArrow=block;curved=0;rounded=0;fontSize=12;startSize=8;endSize=8;" parent="PpwfPjqyfCliycpSLVlc-1" edge="1">
          <mxGeometry x="0.0019" width="80" relative="1" as="geometry">
            <mxPoint x="323.5" y="350" as="sourcePoint" />
            <mxPoint x="490" y="350" as="targetPoint" />
            <mxPoint as="offset" />
          </mxGeometry>
        </mxCell>
        <mxCell id="PpwfPjqyfCliycpSLVlc-15" value="" style="endArrow=none;dashed=1;html=1;rounded=0;fontSize=12;startSize=8;endSize=8;curved=1;entryX=0.5;entryY=1;entryDx=0;entryDy=0;" parent="PpwfPjqyfCliycpSLVlc-1" target="PpwfPjqyfCliycpSLVlc-18" edge="1">
          <mxGeometry width="50" height="50" relative="1" as="geometry">
            <mxPoint x="45" y="750" as="sourcePoint" />
            <mxPoint x="45" y="345" as="targetPoint" />
          </mxGeometry>
        </mxCell>
        <mxCell id="PpwfPjqyfCliycpSLVlc-16" value="5:&amp;nbsp;&lt;span style=&quot;text-align: left; background-color: rgb(251, 251, 251);&quot;&gt;applyBtn(id, major, seatNum, location)&lt;/span&gt;" style="html=1;verticalAlign=bottom;endArrow=block;curved=0;rounded=0;fontSize=12;startSize=8;endSize=8;" parent="PpwfPjqyfCliycpSLVlc-1" edge="1">
          <mxGeometry x="0.0024" width="80" relative="1" as="geometry">
            <mxPoint x="47.5" y="326" as="sourcePoint" />
            <mxPoint x="297.5" y="326" as="targetPoint" />
            <mxPoint as="offset" />
          </mxGeometry>
        </mxCell>
        <mxCell id="PpwfPjqyfCliycpSLVlc-17" value="" style="endArrow=none;dashed=1;html=1;rounded=0;fontSize=12;startSize=8;endSize=8;curved=1;" parent="PpwfPjqyfCliycpSLVlc-1" target="PpwfPjqyfCliycpSLVlc-18" edge="1">
          <mxGeometry width="50" height="50" relative="1" as="geometry">
            <mxPoint x="45" y="315" as="sourcePoint" />
            <mxPoint x="44.5" y="190" as="targetPoint" />
          </mxGeometry>
        </mxCell>
        <mxCell id="PpwfPjqyfCliycpSLVlc-18" value="" style="rounded=0;whiteSpace=wrap;html=1;" parent="PpwfPjqyfCliycpSLVlc-1" vertex="1">
          <mxGeometry x="30" y="220" width="30" height="440" as="geometry" />
        </mxCell>
        <mxCell id="PpwfPjqyfCliycpSLVlc-19" value="이미 사용 중인 좌석일 경우, 대여 불가 공지" style="html=1;verticalAlign=bottom;endArrow=block;curved=0;rounded=0;fontSize=12;startSize=8;endSize=8;exitX=-0.06;exitY=0.384;exitDx=0;exitDy=0;exitPerimeter=0;entryX=1.067;entryY=0.389;entryDx=0;entryDy=0;entryPerimeter=0;" parent="PpwfPjqyfCliycpSLVlc-1" source="PpwfPjqyfCliycpSLVlc-9" target="PpwfPjqyfCliycpSLVlc-18" edge="1">
          <mxGeometry x="-0.0212" y="1" width="80" relative="1" as="geometry">
            <mxPoint x="297.5" y="370" as="sourcePoint" />
            <mxPoint x="70" y="366" as="targetPoint" />
            <mxPoint as="offset" />
          </mxGeometry>
        </mxCell>
        <mxCell id="4zJOaKiFR_U7AnjllImi-0" value="2: getSeat(location, seatNum)" style="html=1;verticalAlign=bottom;endArrow=block;curved=0;rounded=0;fontSize=12;startSize=8;endSize=8;entryX=0;entryY=0.25;entryDx=0;entryDy=0;exitX=0.995;exitY=0.082;exitDx=0;exitDy=0;exitPerimeter=0;" parent="PpwfPjqyfCliycpSLVlc-1" edge="1" target="4zJOaKiFR_U7AnjllImi-1" source="PpwfPjqyfCliycpSLVlc-9">
          <mxGeometry x="0.0087" y="7" width="80" relative="1" as="geometry">
            <mxPoint x="322.5" y="260" as="sourcePoint" />
            <mxPoint x="490" y="261" as="targetPoint" />
            <mxPoint as="offset" />
          </mxGeometry>
        </mxCell>
        <mxCell id="4zJOaKiFR_U7AnjllImi-2" value="" style="endArrow=none;dashed=1;html=1;rounded=0;fontSize=12;startSize=8;endSize=8;curved=1;entryX=0.5;entryY=1;entryDx=0;entryDy=0;entryPerimeter=0;" parent="PpwfPjqyfCliycpSLVlc-1" source="PpwfPjqyfCliycpSLVlc-12" target="4zJOaKiFR_U7AnjllImi-1" edge="1">
          <mxGeometry width="50" height="50" relative="1" as="geometry">
            <mxPoint x="509" y="340" as="sourcePoint" />
            <mxPoint x="510" y="170" as="targetPoint" />
          </mxGeometry>
        </mxCell>
        <mxCell id="4zJOaKiFR_U7AnjllImi-1" value="" style="rounded=0;whiteSpace=wrap;html=1;" parent="PpwfPjqyfCliycpSLVlc-1" vertex="1">
          <mxGeometry x="496" y="250" width="25" height="30" as="geometry" />
        </mxCell>
        <mxCell id="4zJOaKiFR_U7AnjllImi-3" value="사용자 관리&lt;div&gt;DB&lt;/div&gt;" style="shape=cylinder3;whiteSpace=wrap;html=1;boundedLbl=1;backgroundOutline=1;size=15;" parent="PpwfPjqyfCliycpSLVlc-1" vertex="1">
          <mxGeometry x="620" y="90" width="100" height="80" as="geometry" />
        </mxCell>
        <mxCell id="4zJOaKiFR_U7AnjllImi-4" value="" style="endArrow=none;dashed=1;html=1;rounded=0;fontSize=12;startSize=8;endSize=8;curved=1;entryX=0.5;entryY=1;entryDx=0;entryDy=0;entryPerimeter=0;" parent="PpwfPjqyfCliycpSLVlc-1" target="4zJOaKiFR_U7AnjllImi-3" edge="1">
          <mxGeometry width="50" height="50" relative="1" as="geometry">
            <mxPoint x="670" y="750" as="sourcePoint" />
            <mxPoint x="400" y="430" as="targetPoint" />
          </mxGeometry>
        </mxCell>
        <mxCell id="4zJOaKiFR_U7AnjllImi-5" value="" style="endArrow=none;dashed=1;html=1;rounded=0;fontSize=12;startSize=8;endSize=8;curved=1;entryX=0.5;entryY=1;entryDx=0;entryDy=0;entryPerimeter=0;" parent="PpwfPjqyfCliycpSLVlc-1" target="4zJOaKiFR_U7AnjllImi-6" edge="1">
          <mxGeometry width="50" height="50" relative="1" as="geometry">
            <mxPoint x="668.5" y="400" as="sourcePoint" />
            <mxPoint x="670" y="170" as="targetPoint" />
          </mxGeometry>
        </mxCell>
        <mxCell id="4zJOaKiFR_U7AnjllImi-6" value="" style="rounded=0;whiteSpace=wrap;html=1;" parent="PpwfPjqyfCliycpSLVlc-1" vertex="1">
          <mxGeometry x="657.5" y="400" width="25" height="30" as="geometry" />
        </mxCell>
        <mxCell id="4zJOaKiFR_U7AnjllImi-9" value="회원의 학부 정보 조회 &amp;nbsp;" style="html=1;verticalAlign=bottom;endArrow=block;curved=0;rounded=0;fontSize=12;startSize=8;endSize=8;entryX=0;entryY=0.5;entryDx=0;entryDy=0;" parent="PpwfPjqyfCliycpSLVlc-1" target="4zJOaKiFR_U7AnjllImi-6" edge="1">
          <mxGeometry x="0.0019" width="80" relative="1" as="geometry">
            <mxPoint x="322.5" y="414.5" as="sourcePoint" />
            <mxPoint x="494" y="415.5" as="targetPoint" />
            <mxPoint as="offset" />
          </mxGeometry>
        </mxCell>
        <mxCell id="4zJOaKiFR_U7AnjllImi-10" value="해당 좌석의 가능 학부 정보 조회" style="html=1;verticalAlign=bottom;endArrow=block;curved=0;rounded=0;fontSize=12;startSize=8;endSize=8;entryX=-0.055;entryY=0.363;entryDx=0;entryDy=0;entryPerimeter=0;" parent="PpwfPjqyfCliycpSLVlc-1" edge="1">
          <mxGeometry x="0.0019" width="80" relative="1" as="geometry">
            <mxPoint x="324.5" y="380" as="sourcePoint" />
            <mxPoint x="496" y="381" as="targetPoint" />
            <mxPoint as="offset" />
          </mxGeometry>
        </mxCell>
        <mxCell id="4zJOaKiFR_U7AnjllImi-13" value="" style="html=1;points=[[0,0,0,0,5],[0,1,0,0,-5],[1,0,0,0,5],[1,1,0,0,-5]];perimeter=orthogonalPerimeter;outlineConnect=0;targetShapes=umlLifeline;portConstraint=eastwest;newEdgeStyle={&quot;curved&quot;:0,&quot;rounded&quot;:0};" parent="PpwfPjqyfCliycpSLVlc-1" vertex="1">
          <mxGeometry x="322.5" y="470" width="10" height="40" as="geometry" />
        </mxCell>
        <mxCell id="4zJOaKiFR_U7AnjllImi-14" value="회원 학부 정보와 좌석의 가능 학부 정보가 일치하는지 확인" style="html=1;align=left;spacingLeft=2;endArrow=block;rounded=0;edgeStyle=orthogonalEdgeStyle;curved=0;rounded=0;fontSize=12;startSize=8;endSize=8;" parent="PpwfPjqyfCliycpSLVlc-1" target="4zJOaKiFR_U7AnjllImi-13" edge="1">
          <mxGeometry x="0.0118" relative="1" as="geometry">
            <mxPoint x="325" y="457" as="sourcePoint" />
            <Array as="points">
              <mxPoint x="355" y="457" />
              <mxPoint x="355" y="490" />
            </Array>
            <mxPoint as="offset" />
          </mxGeometry>
        </mxCell>
        <mxCell id="4zJOaKiFR_U7AnjllImi-16" value="일치하지 않을 경우, 대여 불가 공지&lt;div&gt;일치할 경우, 좌석 대여 성공 공지&lt;/div&gt;" style="html=1;verticalAlign=bottom;endArrow=block;curved=0;rounded=0;fontSize=12;startSize=8;endSize=8;exitX=-0.1;exitY=0.926;exitDx=0;exitDy=0;exitPerimeter=0;entryX=1.056;entryY=0.928;entryDx=0;entryDy=0;entryPerimeter=0;" parent="PpwfPjqyfCliycpSLVlc-1" source="PpwfPjqyfCliycpSLVlc-9" target="PpwfPjqyfCliycpSLVlc-18" edge="1">
          <mxGeometry x="-0.0212" y="1" width="80" relative="1" as="geometry">
            <mxPoint x="300" y="550" as="sourcePoint" />
            <mxPoint x="64" y="570" as="targetPoint" />
            <mxPoint as="offset" />
          </mxGeometry>
        </mxCell>
        <mxCell id="4zJOaKiFR_U7AnjllImi-19" value="" style="endArrow=none;dashed=1;html=1;rounded=0;fontSize=12;startSize=8;endSize=8;curved=1;entryX=0.5;entryY=1;entryDx=0;entryDy=0;entryPerimeter=0;" parent="PpwfPjqyfCliycpSLVlc-1" target="4zJOaKiFR_U7AnjllImi-18" edge="1">
          <mxGeometry width="50" height="50" relative="1" as="geometry">
            <mxPoint x="509" y="770" as="sourcePoint" />
            <mxPoint x="509" y="390" as="targetPoint" />
          </mxGeometry>
        </mxCell>
        <mxCell id="4zJOaKiFR_U7AnjllImi-18" value="" style="rounded=0;whiteSpace=wrap;html=1;" parent="PpwfPjqyfCliycpSLVlc-1" vertex="1">
          <mxGeometry x="496" y="540" width="25" height="30" as="geometry" />
        </mxCell>
        <mxCell id="4zJOaKiFR_U7AnjllImi-20" value="일치할 경우,&lt;div&gt;해당 좌석 상태 대여 중으로 업데이트&lt;/div&gt;" style="html=1;verticalAlign=bottom;endArrow=block;curved=0;rounded=0;fontSize=12;startSize=8;endSize=8;entryX=-0.055;entryY=0.363;entryDx=0;entryDy=0;entryPerimeter=0;" parent="PpwfPjqyfCliycpSLVlc-1" edge="1">
          <mxGeometry x="0.0019" width="80" relative="1" as="geometry">
            <mxPoint x="324.5" y="554.5" as="sourcePoint" />
            <mxPoint x="496" y="555.5" as="targetPoint" />
            <mxPoint as="offset" />
          </mxGeometry>
        </mxCell>
        <mxCell id="zuwIt1YXjz1c-ViQoDfs-0" value="일치할 경우,&lt;div&gt;해당 회원의 상태를 이용 중으로 업데이트&lt;/div&gt;" style="html=1;verticalAlign=bottom;endArrow=block;curved=0;rounded=0;fontSize=12;startSize=8;endSize=8;entryX=0;entryY=0.75;entryDx=0;entryDy=0;" parent="PpwfPjqyfCliycpSLVlc-1" target="zuwIt1YXjz1c-ViQoDfs-1" edge="1">
          <mxGeometry x="0.0019" width="80" relative="1" as="geometry">
            <mxPoint x="324.5" y="610" as="sourcePoint" />
            <mxPoint x="620" y="610" as="targetPoint" />
            <mxPoint as="offset" />
          </mxGeometry>
        </mxCell>
        <mxCell id="zuwIt1YXjz1c-ViQoDfs-1" value="" style="rounded=0;whiteSpace=wrap;html=1;" parent="PpwfPjqyfCliycpSLVlc-1" vertex="1">
          <mxGeometry x="660" y="590" width="25" height="30" as="geometry" />
        </mxCell>
        <mxCell id="HxDU7NuDoknfD3pTdt9l-0" value="3: 해당 좌석 상세 정보 전송" style="html=1;verticalAlign=bottom;endArrow=open;dashed=1;endSize=8;curved=0;rounded=0;fontSize=12;entryX=0.975;entryY=0.346;entryDx=0;entryDy=0;entryPerimeter=0;exitX=0;exitY=0.633;exitDx=0;exitDy=0;exitPerimeter=0;" edge="1" parent="PpwfPjqyfCliycpSLVlc-1" source="4zJOaKiFR_U7AnjllImi-1">
          <mxGeometry x="0.0304" y="24" relative="1" as="geometry">
            <mxPoint x="490" y="270" as="sourcePoint" />
            <mxPoint x="321.53" y="269.99999999999994" as="targetPoint" />
            <mxPoint as="offset" />
          </mxGeometry>
        </mxCell>
        <mxCell id="HxDU7NuDoknfD3pTdt9l-1" value="4: 해당 좌석에 대한 정보 제공" style="html=1;verticalAlign=bottom;endArrow=open;dashed=1;endSize=8;curved=0;rounded=0;fontSize=12;exitX=0.009;exitY=0.346;exitDx=0;exitDy=0;exitPerimeter=0;entryX=0.975;entryY=0.346;entryDx=0;entryDy=0;entryPerimeter=0;" edge="1" parent="PpwfPjqyfCliycpSLVlc-1">
          <mxGeometry x="-0.0044" y="20" relative="1" as="geometry">
            <mxPoint x="298.475" y="279.99999999999994" as="sourcePoint" />
            <mxPoint x="60" y="279.99999999999994" as="targetPoint" />
            <mxPoint as="offset" />
          </mxGeometry>
        </mxCell>
      </root>
    </mxGraphModel>
  </diagram>
  <diagram name="배정 좌석 확인" id="Ps8qZK3bL49_wSJUb_Qv">
    <mxGraphModel dx="1166" dy="595" grid="1" gridSize="10" guides="1" tooltips="1" connect="1" arrows="1" fold="1" page="1" pageScale="1" pageWidth="850" pageHeight="1100" math="0" shadow="0">
      <root>
        <mxCell id="nsABx-BomZK_lhBhXkGz-0" />
        <mxCell id="nsABx-BomZK_lhBhXkGz-1" parent="nsABx-BomZK_lhBhXkGz-0" />
        <mxCell id="nsABx-BomZK_lhBhXkGz-3" value="회원" style="shape=umlActor;verticalLabelPosition=bottom;verticalAlign=top;html=1;outlineConnect=0;" parent="nsABx-BomZK_lhBhXkGz-1" vertex="1">
          <mxGeometry x="30" y="110" width="30" height="60" as="geometry" />
        </mxCell>
        <mxCell id="nsABx-BomZK_lhBhXkGz-4" value="" style="endArrow=none;dashed=1;html=1;rounded=0;fontSize=12;startSize=8;endSize=8;curved=1;" parent="nsABx-BomZK_lhBhXkGz-1" source="nsABx-BomZK_lhBhXkGz-19" edge="1">
          <mxGeometry width="50" height="50" relative="1" as="geometry">
            <mxPoint x="44" y="750" as="sourcePoint" />
            <mxPoint x="44.5" y="200" as="targetPoint" />
          </mxGeometry>
        </mxCell>
        <mxCell id="nsABx-BomZK_lhBhXkGz-5" value="배정 좌석 확인" style="text;html=1;align=center;verticalAlign=middle;whiteSpace=wrap;rounded=0;fontSize=16;" parent="nsABx-BomZK_lhBhXkGz-1" vertex="1">
          <mxGeometry x="50" y="30" width="170" height="30" as="geometry" />
        </mxCell>
        <mxCell id="nsABx-BomZK_lhBhXkGz-6" value="유저 관리 서버" style="rounded=1;whiteSpace=wrap;html=1;" parent="nsABx-BomZK_lhBhXkGz-1" vertex="1">
          <mxGeometry x="250" y="110" width="120" height="60" as="geometry" />
        </mxCell>
        <mxCell id="nsABx-BomZK_lhBhXkGz-7" value="좌석 관리&lt;div&gt;DB&lt;/div&gt;" style="shape=cylinder3;whiteSpace=wrap;html=1;boundedLbl=1;backgroundOutline=1;size=15;" parent="nsABx-BomZK_lhBhXkGz-1" vertex="1">
          <mxGeometry x="670" y="100" width="100" height="80" as="geometry" />
        </mxCell>
        <mxCell id="nsABx-BomZK_lhBhXkGz-8" value="" style="endArrow=none;dashed=1;html=1;dashPattern=1 3;strokeWidth=2;rounded=0;fontSize=12;startSize=8;endSize=8;curved=1;entryX=0.5;entryY=1;entryDx=0;entryDy=0;" parent="nsABx-BomZK_lhBhXkGz-1" target="nsABx-BomZK_lhBhXkGz-6" edge="1">
          <mxGeometry width="50" height="50" relative="1" as="geometry">
            <mxPoint x="310" y="490" as="sourcePoint" />
            <mxPoint x="290" y="360" as="targetPoint" />
          </mxGeometry>
        </mxCell>
        <mxCell id="nsABx-BomZK_lhBhXkGz-9" value="" style="endArrow=none;dashed=1;html=1;rounded=0;fontSize=12;startSize=8;endSize=8;curved=1;entryX=0.5;entryY=1;entryDx=0;entryDy=0;entryPerimeter=0;" parent="nsABx-BomZK_lhBhXkGz-1" source="nsABx-BomZK_lhBhXkGz-13" target="nsABx-BomZK_lhBhXkGz-7" edge="1">
          <mxGeometry width="50" height="50" relative="1" as="geometry">
            <mxPoint x="718.7368421052631" y="260" as="sourcePoint" />
            <mxPoint x="450" y="440" as="targetPoint" />
          </mxGeometry>
        </mxCell>
        <mxCell id="nsABx-BomZK_lhBhXkGz-10" value="" style="rounded=0;whiteSpace=wrap;html=1;" parent="nsABx-BomZK_lhBhXkGz-1" vertex="1">
          <mxGeometry x="297.5" y="230" width="25" height="150" as="geometry" />
        </mxCell>
        <mxCell id="nsABx-BomZK_lhBhXkGz-11" value="1: 나의 배정 좌석 확인 서비스 클릭" style="html=1;verticalAlign=bottom;endArrow=block;curved=0;rounded=0;fontSize=12;startSize=8;endSize=8;" parent="nsABx-BomZK_lhBhXkGz-1" edge="1">
          <mxGeometry width="80" relative="1" as="geometry">
            <mxPoint x="50" y="250" as="sourcePoint" />
            <mxPoint x="300" y="250" as="targetPoint" />
          </mxGeometry>
        </mxCell>
        <mxCell id="nsABx-BomZK_lhBhXkGz-12" value="" style="endArrow=none;dashed=1;html=1;rounded=0;fontSize=12;startSize=8;endSize=8;curved=1;entryX=0.5;entryY=1;entryDx=0;entryDy=0;entryPerimeter=0;" parent="nsABx-BomZK_lhBhXkGz-1" target="nsABx-BomZK_lhBhXkGz-13" edge="1">
          <mxGeometry width="50" height="50" relative="1" as="geometry">
            <mxPoint x="720" y="500" as="sourcePoint" />
            <mxPoint x="720" y="180" as="targetPoint" />
          </mxGeometry>
        </mxCell>
        <mxCell id="nsABx-BomZK_lhBhXkGz-13" value="" style="rounded=0;whiteSpace=wrap;html=1;" parent="nsABx-BomZK_lhBhXkGz-1" vertex="1">
          <mxGeometry x="707.5" y="337" width="25" height="30" as="geometry" />
        </mxCell>
        <mxCell id="nsABx-BomZK_lhBhXkGz-14" value="4: getSeat(location, seatNum, userId)" style="html=1;verticalAlign=bottom;endArrow=block;curved=0;rounded=0;fontSize=12;startSize=8;endSize=8;exitX=1;exitY=0.75;exitDx=0;exitDy=0;entryX=0.1;entryY=0.35;entryDx=0;entryDy=0;entryPerimeter=0;" parent="nsABx-BomZK_lhBhXkGz-1" edge="1" target="nsABx-BomZK_lhBhXkGz-13" source="rXEiWBD-4G9tlzMvCLsn-1">
          <mxGeometry x="0.0036" width="80" relative="1" as="geometry">
            <mxPoint x="490" y="351.52" as="sourcePoint" />
            <mxPoint x="710" y="350" as="targetPoint" />
            <mxPoint as="offset" />
          </mxGeometry>
        </mxCell>
        <mxCell id="nsABx-BomZK_lhBhXkGz-16" value="" style="endArrow=none;dashed=1;html=1;rounded=0;fontSize=12;startSize=8;endSize=8;curved=1;entryX=0.5;entryY=1;entryDx=0;entryDy=0;" parent="nsABx-BomZK_lhBhXkGz-1" target="nsABx-BomZK_lhBhXkGz-19" edge="1">
          <mxGeometry width="50" height="50" relative="1" as="geometry">
            <mxPoint x="45" y="420" as="sourcePoint" />
            <mxPoint x="45" y="355" as="targetPoint" />
          </mxGeometry>
        </mxCell>
        <mxCell id="nsABx-BomZK_lhBhXkGz-18" value="" style="endArrow=none;dashed=1;html=1;rounded=0;fontSize=12;startSize=8;endSize=8;curved=1;" parent="nsABx-BomZK_lhBhXkGz-1" target="nsABx-BomZK_lhBhXkGz-19" edge="1">
          <mxGeometry width="50" height="50" relative="1" as="geometry">
            <mxPoint x="45" y="325" as="sourcePoint" />
            <mxPoint x="44.5" y="200" as="targetPoint" />
          </mxGeometry>
        </mxCell>
        <mxCell id="nsABx-BomZK_lhBhXkGz-19" value="" style="rounded=0;whiteSpace=wrap;html=1;" parent="nsABx-BomZK_lhBhXkGz-1" vertex="1">
          <mxGeometry x="30" y="230" width="30" height="150" as="geometry" />
        </mxCell>
        <mxCell id="nsABx-BomZK_lhBhXkGz-21" value="2: getUser(id)" style="html=1;verticalAlign=bottom;endArrow=block;curved=0;rounded=0;fontSize=12;startSize=8;endSize=8;entryX=0.03;entryY=0.094;entryDx=0;entryDy=0;entryPerimeter=0;" parent="nsABx-BomZK_lhBhXkGz-1" edge="1" target="nsABx-BomZK_lhBhXkGz-27">
          <mxGeometry x="-0.0013" width="80" relative="1" as="geometry">
            <mxPoint x="322.5" y="260" as="sourcePoint" />
            <mxPoint x="810" y="270" as="targetPoint" />
            <mxPoint as="offset" />
          </mxGeometry>
        </mxCell>
        <mxCell id="nsABx-BomZK_lhBhXkGz-24" value="사용자 관리&lt;div&gt;DB&lt;/div&gt;" style="shape=cylinder3;whiteSpace=wrap;html=1;boundedLbl=1;backgroundOutline=1;size=15;" parent="nsABx-BomZK_lhBhXkGz-1" vertex="1">
          <mxGeometry x="830" y="100" width="100" height="80" as="geometry" />
        </mxCell>
        <mxCell id="nsABx-BomZK_lhBhXkGz-25" value="" style="endArrow=none;dashed=1;html=1;rounded=0;fontSize=12;startSize=8;endSize=8;curved=1;entryX=0.5;entryY=1;entryDx=0;entryDy=0;entryPerimeter=0;" parent="nsABx-BomZK_lhBhXkGz-1" source="nsABx-BomZK_lhBhXkGz-27" target="nsABx-BomZK_lhBhXkGz-24" edge="1">
          <mxGeometry width="50" height="50" relative="1" as="geometry">
            <mxPoint x="880" y="640" as="sourcePoint" />
            <mxPoint x="610" y="440" as="targetPoint" />
          </mxGeometry>
        </mxCell>
        <mxCell id="nsABx-BomZK_lhBhXkGz-26" value="" style="endArrow=none;dashed=1;html=1;rounded=0;fontSize=12;startSize=8;endSize=8;curved=1;entryX=0.5;entryY=1;entryDx=0;entryDy=0;entryPerimeter=0;" parent="nsABx-BomZK_lhBhXkGz-1" target="nsABx-BomZK_lhBhXkGz-27" edge="1">
          <mxGeometry width="50" height="50" relative="1" as="geometry">
            <mxPoint x="880" y="510" as="sourcePoint" />
            <mxPoint x="720" y="180" as="targetPoint" />
            <Array as="points" />
          </mxGeometry>
        </mxCell>
        <mxCell id="nsABx-BomZK_lhBhXkGz-27" value="" style="rounded=0;whiteSpace=wrap;html=1;" parent="nsABx-BomZK_lhBhXkGz-1" vertex="1">
          <mxGeometry x="867.5" y="250" width="25" height="110" as="geometry" />
        </mxCell>
        <mxCell id="l6nPBSD4xLy4LiBRqJLW-0" value="3.a: 빌린 좌석이 없을 경우 전송" style="html=1;verticalAlign=bottom;endArrow=open;dashed=1;endSize=8;curved=0;rounded=0;fontSize=12;exitX=-0.061;exitY=0.181;exitDx=0;exitDy=0;exitPerimeter=0;" edge="1" parent="nsABx-BomZK_lhBhXkGz-1" source="nsABx-BomZK_lhBhXkGz-27">
          <mxGeometry x="-0.0025" y="20" relative="1" as="geometry">
            <mxPoint x="586" y="270.45" as="sourcePoint" />
            <mxPoint x="322.5" y="270" as="targetPoint" />
            <mxPoint as="offset" />
          </mxGeometry>
        </mxCell>
        <mxCell id="l6nPBSD4xLy4LiBRqJLW-1" value="4.a: 해당 회원에게 이용 중인 좌석 정보가 없으면,&lt;div&gt;이용이 불가능한 서비스라고 공지&lt;/div&gt;" style="html=1;verticalAlign=bottom;endArrow=open;dashed=1;endSize=8;curved=0;rounded=0;fontSize=12;exitX=-0.045;exitY=0.581;exitDx=0;exitDy=0;exitPerimeter=0;" edge="1" parent="nsABx-BomZK_lhBhXkGz-1">
          <mxGeometry x="-0.0955" y="40" relative="1" as="geometry">
            <mxPoint x="297.3750000000001" y="290.1500000000001" as="sourcePoint" />
            <mxPoint x="60" y="290" as="targetPoint" />
            <mxPoint as="offset" />
          </mxGeometry>
        </mxCell>
        <mxCell id="l6nPBSD4xLy4LiBRqJLW-3" value="좌석 관리 서버" style="rounded=1;whiteSpace=wrap;html=1;" vertex="1" parent="nsABx-BomZK_lhBhXkGz-1">
          <mxGeometry x="430" y="110" width="120" height="60" as="geometry" />
        </mxCell>
        <mxCell id="l6nPBSD4xLy4LiBRqJLW-4" value="" style="endArrow=none;dashed=1;html=1;dashPattern=1 3;strokeWidth=2;rounded=0;fontSize=12;startSize=8;endSize=8;curved=1;entryX=0.5;entryY=1;entryDx=0;entryDy=0;" edge="1" parent="nsABx-BomZK_lhBhXkGz-1">
          <mxGeometry width="50" height="50" relative="1" as="geometry">
            <mxPoint x="490" y="490" as="sourcePoint" />
            <mxPoint x="489.52" y="170" as="targetPoint" />
          </mxGeometry>
        </mxCell>
        <mxCell id="l6nPBSD4xLy4LiBRqJLW-9" value="3: 빌린 좌석 있을 경우 전송" style="html=1;verticalAlign=bottom;endArrow=open;dashed=1;endSize=8;curved=0;rounded=0;fontSize=12;exitX=-0.132;exitY=0.367;exitDx=0;exitDy=0;exitPerimeter=0;entryX=1.03;entryY=0.199;entryDx=0;entryDy=0;entryPerimeter=0;" edge="1" parent="nsABx-BomZK_lhBhXkGz-1" target="rXEiWBD-4G9tlzMvCLsn-1">
          <mxGeometry x="-0.0042" y="20" relative="1" as="geometry">
            <mxPoint x="867.5" y="300.37" as="sourcePoint" />
            <mxPoint x="493.3" y="300" as="targetPoint" />
            <mxPoint as="offset" />
          </mxGeometry>
        </mxCell>
        <mxCell id="rXEiWBD-4G9tlzMvCLsn-0" value="5: 해당 좌석 상세 정보 제공" style="html=1;verticalAlign=bottom;endArrow=open;dashed=1;endSize=8;curved=0;rounded=0;fontSize=12;exitX=0;exitY=0.75;exitDx=0;exitDy=0;entryX=1.069;entryY=0.882;entryDx=0;entryDy=0;entryPerimeter=0;" edge="1" parent="nsABx-BomZK_lhBhXkGz-1" source="nsABx-BomZK_lhBhXkGz-13" target="rXEiWBD-4G9tlzMvCLsn-1">
          <mxGeometry x="-0.0067" y="20" relative="1" as="geometry">
            <mxPoint x="816" y="360" as="sourcePoint" />
            <mxPoint x="510" y="370" as="targetPoint" />
            <mxPoint as="offset" />
          </mxGeometry>
        </mxCell>
        <mxCell id="rXEiWBD-4G9tlzMvCLsn-1" value="" style="rounded=0;whiteSpace=wrap;html=1;" vertex="1" parent="nsABx-BomZK_lhBhXkGz-1">
          <mxGeometry x="477.5" y="280" width="25" height="90" as="geometry" />
        </mxCell>
        <mxCell id="rXEiWBD-4G9tlzMvCLsn-2" value="6: 해당 좌석 상세 정보 제공" style="html=1;verticalAlign=bottom;endArrow=open;dashed=1;endSize=8;curved=0;rounded=0;fontSize=12;exitX=0.035;exitY=0.877;exitDx=0;exitDy=0;exitPerimeter=0;" edge="1" parent="nsABx-BomZK_lhBhXkGz-1" source="rXEiWBD-4G9tlzMvCLsn-1">
          <mxGeometry x="0.2065" y="20" relative="1" as="geometry">
            <mxPoint x="350" y="360" as="sourcePoint" />
            <mxPoint x="60" y="360" as="targetPoint" />
            <mxPoint as="offset" />
          </mxGeometry>
        </mxCell>
      </root>
    </mxGraphModel>
  </diagram>
  <diagram name="좌석 반납" id="8VdD1YzRlduRzywfWi3p">
    <mxGraphModel dx="1166" dy="595" grid="1" gridSize="10" guides="1" tooltips="1" connect="1" arrows="1" fold="1" page="1" pageScale="1" pageWidth="850" pageHeight="1100" math="0" shadow="0">
      <root>
        <mxCell id="kwXg_oF9q3oiJeOSXN9p-0" />
        <mxCell id="kwXg_oF9q3oiJeOSXN9p-1" parent="kwXg_oF9q3oiJeOSXN9p-0" />
        <mxCell id="kwXg_oF9q3oiJeOSXN9p-2" value="회원" style="shape=umlActor;verticalLabelPosition=bottom;verticalAlign=top;html=1;outlineConnect=0;" parent="kwXg_oF9q3oiJeOSXN9p-1" vertex="1">
          <mxGeometry x="10" y="90" width="30" height="60" as="geometry" />
        </mxCell>
        <mxCell id="kwXg_oF9q3oiJeOSXN9p-3" value="" style="endArrow=none;dashed=1;html=1;rounded=0;fontSize=12;startSize=8;endSize=8;curved=1;" parent="kwXg_oF9q3oiJeOSXN9p-1" source="kwXg_oF9q3oiJeOSXN9p-17" edge="1">
          <mxGeometry width="50" height="50" relative="1" as="geometry">
            <mxPoint x="24" y="730" as="sourcePoint" />
            <mxPoint x="24.5" y="180" as="targetPoint" />
          </mxGeometry>
        </mxCell>
        <mxCell id="kwXg_oF9q3oiJeOSXN9p-4" value="좌석 반납" style="text;html=1;align=center;verticalAlign=middle;whiteSpace=wrap;rounded=0;fontSize=16;" parent="kwXg_oF9q3oiJeOSXN9p-1" vertex="1">
          <mxGeometry x="50" y="30" width="120" height="30" as="geometry" />
        </mxCell>
        <mxCell id="kwXg_oF9q3oiJeOSXN9p-5" value="좌석 관리 서버" style="rounded=1;whiteSpace=wrap;html=1;" parent="kwXg_oF9q3oiJeOSXN9p-1" vertex="1">
          <mxGeometry x="330" y="90" width="120" height="60" as="geometry" />
        </mxCell>
        <mxCell id="kwXg_oF9q3oiJeOSXN9p-6" value="좌석 관리&lt;div&gt;DB&lt;/div&gt;" style="shape=cylinder3;whiteSpace=wrap;html=1;boundedLbl=1;backgroundOutline=1;size=15;" parent="kwXg_oF9q3oiJeOSXN9p-1" vertex="1">
          <mxGeometry x="600" y="80" width="100" height="80" as="geometry" />
        </mxCell>
        <mxCell id="kwXg_oF9q3oiJeOSXN9p-7" value="" style="endArrow=none;dashed=1;html=1;dashPattern=1 3;strokeWidth=2;rounded=0;fontSize=12;startSize=8;endSize=8;curved=1;entryX=0.5;entryY=1;entryDx=0;entryDy=0;" parent="kwXg_oF9q3oiJeOSXN9p-1" target="kwXg_oF9q3oiJeOSXN9p-5" edge="1">
          <mxGeometry width="50" height="50" relative="1" as="geometry">
            <mxPoint x="390" y="450" as="sourcePoint" />
            <mxPoint x="370" y="340" as="targetPoint" />
          </mxGeometry>
        </mxCell>
        <mxCell id="kwXg_oF9q3oiJeOSXN9p-8" value="" style="endArrow=none;dashed=1;html=1;rounded=0;fontSize=12;startSize=8;endSize=8;curved=1;entryX=0.5;entryY=1;entryDx=0;entryDy=0;entryPerimeter=0;" parent="kwXg_oF9q3oiJeOSXN9p-1" source="kwXg_oF9q3oiJeOSXN9p-12" target="kwXg_oF9q3oiJeOSXN9p-6" edge="1">
          <mxGeometry width="50" height="50" relative="1" as="geometry">
            <mxPoint x="648.7368421052631" y="240" as="sourcePoint" />
            <mxPoint x="380" y="420" as="targetPoint" />
          </mxGeometry>
        </mxCell>
        <mxCell id="kwXg_oF9q3oiJeOSXN9p-9" value="" style="rounded=0;whiteSpace=wrap;html=1;" parent="kwXg_oF9q3oiJeOSXN9p-1" vertex="1">
          <mxGeometry x="377.5" y="210" width="25" height="90" as="geometry" />
        </mxCell>
        <mxCell id="kwXg_oF9q3oiJeOSXN9p-10" value="1: returnBtn(id, location, seatNum)" style="html=1;verticalAlign=bottom;endArrow=block;curved=0;rounded=0;fontSize=12;startSize=8;endSize=8;entryX=0;entryY=0;entryDx=0;entryDy=0;exitX=1;exitY=0;exitDx=0;exitDy=0;" parent="kwXg_oF9q3oiJeOSXN9p-1" edge="1">
          <mxGeometry x="-0.2494" width="80" relative="1" as="geometry">
            <mxPoint x="40" y="214" as="sourcePoint" />
            <mxPoint x="377.5" y="214" as="targetPoint" />
            <mxPoint as="offset" />
          </mxGeometry>
        </mxCell>
        <mxCell id="kwXg_oF9q3oiJeOSXN9p-11" value="" style="endArrow=none;dashed=1;html=1;rounded=0;fontSize=12;startSize=8;endSize=8;curved=1;entryX=0.5;entryY=1;entryDx=0;entryDy=0;entryPerimeter=0;" parent="kwXg_oF9q3oiJeOSXN9p-1" target="kwXg_oF9q3oiJeOSXN9p-12" edge="1">
          <mxGeometry width="50" height="50" relative="1" as="geometry">
            <mxPoint x="650" y="450" as="sourcePoint" />
            <mxPoint x="650" y="160" as="targetPoint" />
          </mxGeometry>
        </mxCell>
        <mxCell id="kwXg_oF9q3oiJeOSXN9p-12" value="" style="rounded=0;whiteSpace=wrap;html=1;" parent="kwXg_oF9q3oiJeOSXN9p-1" vertex="1">
          <mxGeometry x="637.5" y="210" width="25" height="50" as="geometry" />
        </mxCell>
        <mxCell id="kwXg_oF9q3oiJeOSXN9p-13" value="&lt;font style=&quot;font-size: 10px;&quot;&gt;2: updateSeatStatus(location, seatNum, status)&lt;/font&gt;" style="html=1;verticalAlign=bottom;endArrow=block;curved=0;rounded=0;fontSize=12;startSize=8;endSize=8;entryX=0.052;entryY=0.316;entryDx=0;entryDy=0;entryPerimeter=0;exitX=0.961;exitY=0.155;exitDx=0;exitDy=0;exitPerimeter=0;" parent="kwXg_oF9q3oiJeOSXN9p-1" source="kwXg_oF9q3oiJeOSXN9p-9" target="kwXg_oF9q3oiJeOSXN9p-12" edge="1">
          <mxGeometry x="0.0057" width="80" relative="1" as="geometry">
            <mxPoint x="403" y="230" as="sourcePoint" />
            <mxPoint x="638" y="253" as="targetPoint" />
            <mxPoint as="offset" />
          </mxGeometry>
        </mxCell>
        <mxCell id="kwXg_oF9q3oiJeOSXN9p-15" value="" style="endArrow=none;dashed=1;html=1;rounded=0;fontSize=12;startSize=8;endSize=8;curved=1;entryX=0.5;entryY=1;entryDx=0;entryDy=0;" parent="kwXg_oF9q3oiJeOSXN9p-1" target="kwXg_oF9q3oiJeOSXN9p-17" edge="1">
          <mxGeometry width="50" height="50" relative="1" as="geometry">
            <mxPoint x="25" y="480" as="sourcePoint" />
            <mxPoint x="25" y="335" as="targetPoint" />
          </mxGeometry>
        </mxCell>
        <mxCell id="kwXg_oF9q3oiJeOSXN9p-16" value="" style="endArrow=none;dashed=1;html=1;rounded=0;fontSize=12;startSize=8;endSize=8;curved=1;" parent="kwXg_oF9q3oiJeOSXN9p-1" target="kwXg_oF9q3oiJeOSXN9p-17" edge="1">
          <mxGeometry width="50" height="50" relative="1" as="geometry">
            <mxPoint x="25" y="305" as="sourcePoint" />
            <mxPoint x="24.5" y="180" as="targetPoint" />
          </mxGeometry>
        </mxCell>
        <mxCell id="kwXg_oF9q3oiJeOSXN9p-17" value="" style="rounded=0;whiteSpace=wrap;html=1;" parent="kwXg_oF9q3oiJeOSXN9p-1" vertex="1">
          <mxGeometry x="10" y="210" width="30" height="210" as="geometry" />
        </mxCell>
        <mxCell id="kwXg_oF9q3oiJeOSXN9p-18" value="5:&amp;nbsp;&lt;span style=&quot;text-align: left; background-color: rgb(251, 251, 251);&quot;&gt;updateUser(id, isRented)&lt;/span&gt;" style="html=1;verticalAlign=bottom;endArrow=block;curved=0;rounded=0;fontSize=12;startSize=8;endSize=8;entryX=0;entryY=0.5;entryDx=0;entryDy=0;exitX=0.978;exitY=0.56;exitDx=0;exitDy=0;exitPerimeter=0;" parent="kwXg_oF9q3oiJeOSXN9p-1" edge="1" source="LpHFOxmsltOBe8XN5Mav-2">
          <mxGeometry x="0.1797" width="80" relative="1" as="geometry">
            <mxPoint x="230" y="350.48" as="sourcePoint" />
            <mxPoint x="772.5" y="349.9999999999999" as="targetPoint" />
            <mxPoint as="offset" />
          </mxGeometry>
        </mxCell>
        <mxCell id="kwXg_oF9q3oiJeOSXN9p-19" value="사용자 관리&lt;div&gt;DB&lt;/div&gt;" style="shape=cylinder3;whiteSpace=wrap;html=1;boundedLbl=1;backgroundOutline=1;size=15;" parent="kwXg_oF9q3oiJeOSXN9p-1" vertex="1">
          <mxGeometry x="735" y="80" width="100" height="80" as="geometry" />
        </mxCell>
        <mxCell id="kwXg_oF9q3oiJeOSXN9p-20" value="" style="endArrow=none;dashed=1;html=1;rounded=0;fontSize=12;startSize=8;endSize=8;curved=1;entryX=0.5;entryY=1;entryDx=0;entryDy=0;entryPerimeter=0;" parent="kwXg_oF9q3oiJeOSXN9p-1" source="kwXg_oF9q3oiJeOSXN9p-22" target="kwXg_oF9q3oiJeOSXN9p-19" edge="1">
          <mxGeometry width="50" height="50" relative="1" as="geometry">
            <mxPoint x="785" y="620" as="sourcePoint" />
            <mxPoint x="515" y="420" as="targetPoint" />
          </mxGeometry>
        </mxCell>
        <mxCell id="kwXg_oF9q3oiJeOSXN9p-21" value="" style="endArrow=none;dashed=1;html=1;rounded=0;fontSize=12;startSize=8;endSize=8;curved=1;entryX=0.5;entryY=1;entryDx=0;entryDy=0;entryPerimeter=0;" parent="kwXg_oF9q3oiJeOSXN9p-1" target="kwXg_oF9q3oiJeOSXN9p-22" edge="1">
          <mxGeometry width="50" height="50" relative="1" as="geometry">
            <mxPoint x="785" y="500" as="sourcePoint" />
            <mxPoint x="785" y="160" as="targetPoint" />
          </mxGeometry>
        </mxCell>
        <mxCell id="kwXg_oF9q3oiJeOSXN9p-22" value="" style="rounded=0;whiteSpace=wrap;html=1;" parent="kwXg_oF9q3oiJeOSXN9p-1" vertex="1">
          <mxGeometry x="772.5" y="340" width="25" height="30" as="geometry" />
        </mxCell>
        <mxCell id="_l1RK4QAukfhr_Tx77an-2" style="edgeStyle=none;curved=1;rounded=0;orthogonalLoop=1;jettySize=auto;html=1;entryX=0;entryY=0.5;entryDx=0;entryDy=0;fontSize=12;startSize=8;endSize=8;" parent="kwXg_oF9q3oiJeOSXN9p-1" source="kwXg_oF9q3oiJeOSXN9p-22" target="kwXg_oF9q3oiJeOSXN9p-22" edge="1">
          <mxGeometry relative="1" as="geometry" />
        </mxCell>
        <mxCell id="Kvrz4m8G516CyuP2hbN1-0" value="3: 좌석 상태 변경 알림 전송" style="html=1;verticalAlign=bottom;endArrow=open;dashed=1;endSize=8;curved=0;rounded=0;fontSize=12;exitX=0;exitY=0.5;exitDx=0;exitDy=0;entryX=1.02;entryY=0.276;entryDx=0;entryDy=0;entryPerimeter=0;" edge="1" parent="kwXg_oF9q3oiJeOSXN9p-1" source="kwXg_oF9q3oiJeOSXN9p-12" target="kwXg_oF9q3oiJeOSXN9p-9">
          <mxGeometry x="-0.0037" y="20" relative="1" as="geometry">
            <mxPoint x="557.5" y="261.5" as="sourcePoint" />
            <mxPoint x="300" y="262" as="targetPoint" />
            <mxPoint as="offset" />
          </mxGeometry>
        </mxCell>
        <mxCell id="Kvrz4m8G516CyuP2hbN1-1" value="유저 관리 서버" style="rounded=1;whiteSpace=wrap;html=1;" vertex="1" parent="kwXg_oF9q3oiJeOSXN9p-1">
          <mxGeometry x="170" y="90" width="120" height="60" as="geometry" />
        </mxCell>
        <mxCell id="KD4HactDEP2OunnHfzFq-0" value="" style="endArrow=none;dashed=1;html=1;rounded=0;fontSize=12;startSize=8;endSize=8;curved=1;entryX=0.5;entryY=1;entryDx=0;entryDy=0;entryPerimeter=0;" edge="1" parent="kwXg_oF9q3oiJeOSXN9p-1">
          <mxGeometry width="50" height="50" relative="1" as="geometry">
            <mxPoint x="230" y="470" as="sourcePoint" />
            <mxPoint x="229.63" y="150" as="targetPoint" />
          </mxGeometry>
        </mxCell>
        <mxCell id="LpHFOxmsltOBe8XN5Mav-0" value="4: 좌석 상태 변경 알림 전송" style="html=1;verticalAlign=bottom;endArrow=open;dashed=1;endSize=8;curved=0;rounded=0;fontSize=12;exitX=-0.035;exitY=0.779;exitDx=0;exitDy=0;exitPerimeter=0;entryX=1.029;entryY=0.124;entryDx=0;entryDy=0;entryPerimeter=0;" edge="1" parent="kwXg_oF9q3oiJeOSXN9p-1" source="kwXg_oF9q3oiJeOSXN9p-9" target="LpHFOxmsltOBe8XN5Mav-2">
          <mxGeometry x="-0.0037" y="20" relative="1" as="geometry">
            <mxPoint x="465" y="280" as="sourcePoint" />
            <mxPoint x="250" y="281" as="targetPoint" />
            <mxPoint as="offset" />
          </mxGeometry>
        </mxCell>
        <mxCell id="LpHFOxmsltOBe8XN5Mav-1" value="6: 유저의 좌석 이용 상태 변경 알림 전송" style="html=1;verticalAlign=bottom;endArrow=open;dashed=1;endSize=8;curved=0;rounded=0;fontSize=12;entryX=0.996;entryY=0.626;entryDx=0;entryDy=0;entryPerimeter=0;" edge="1" parent="kwXg_oF9q3oiJeOSXN9p-1" target="LpHFOxmsltOBe8XN5Mav-2">
          <mxGeometry x="-0.0041" y="20" relative="1" as="geometry">
            <mxPoint x="770" y="360" as="sourcePoint" />
            <mxPoint x="231.5" y="360" as="targetPoint" />
            <mxPoint as="offset" />
          </mxGeometry>
        </mxCell>
        <mxCell id="LpHFOxmsltOBe8XN5Mav-2" value="" style="rounded=0;whiteSpace=wrap;html=1;" vertex="1" parent="kwXg_oF9q3oiJeOSXN9p-1">
          <mxGeometry x="220" y="260" width="25" height="160" as="geometry" />
        </mxCell>
        <mxCell id="LpHFOxmsltOBe8XN5Mav-3" value="7: 반납 완료 전송" style="html=1;verticalAlign=bottom;endArrow=open;dashed=1;endSize=8;curved=0;rounded=0;fontSize=12;exitX=-0.008;exitY=0.679;exitDx=0;exitDy=0;exitPerimeter=0;entryX=1.029;entryY=0.124;entryDx=0;entryDy=0;entryPerimeter=0;" edge="1" parent="kwXg_oF9q3oiJeOSXN9p-1">
          <mxGeometry x="-0.0037" y="20" relative="1" as="geometry">
            <mxPoint x="220.00000000000006" y="390" as="sourcePoint" />
            <mxPoint x="39.2" y="391.36" as="targetPoint" />
            <mxPoint as="offset" />
          </mxGeometry>
        </mxCell>
      </root>
    </mxGraphModel>
  </diagram>
  <diagram name="시간 연장" id="OO1coq4F_BpUvdBKQHk6">
    <mxGraphModel dx="1360" dy="694" grid="1" gridSize="10" guides="1" tooltips="1" connect="1" arrows="1" fold="1" page="1" pageScale="1" pageWidth="850" pageHeight="1100" math="0" shadow="0">
      <root>
        <mxCell id="HI9lY-tAYUMj1OGBsxrr-0" />
        <mxCell id="HI9lY-tAYUMj1OGBsxrr-1" parent="HI9lY-tAYUMj1OGBsxrr-0" />
        <mxCell id="HI9lY-tAYUMj1OGBsxrr-2" value="회원" style="shape=umlActor;verticalLabelPosition=bottom;verticalAlign=top;html=1;outlineConnect=0;" parent="HI9lY-tAYUMj1OGBsxrr-1" vertex="1">
          <mxGeometry x="139" y="170" width="30" height="60" as="geometry" />
        </mxCell>
        <mxCell id="HI9lY-tAYUMj1OGBsxrr-3" value="" style="endArrow=none;dashed=1;html=1;rounded=0;fontSize=12;startSize=8;endSize=8;curved=1;" parent="HI9lY-tAYUMj1OGBsxrr-1" source="HI9lY-tAYUMj1OGBsxrr-17" edge="1">
          <mxGeometry width="50" height="50" relative="1" as="geometry">
            <mxPoint x="153" y="810" as="sourcePoint" />
            <mxPoint x="153.5" y="260" as="targetPoint" />
          </mxGeometry>
        </mxCell>
        <mxCell id="HI9lY-tAYUMj1OGBsxrr-4" value="시간 연장" style="text;html=1;align=center;verticalAlign=middle;whiteSpace=wrap;rounded=0;fontSize=16;" parent="HI9lY-tAYUMj1OGBsxrr-1" vertex="1">
          <mxGeometry x="110" y="100" width="110" height="30" as="geometry" />
        </mxCell>
        <mxCell id="HI9lY-tAYUMj1OGBsxrr-5" value="좌석 관리 서버" style="rounded=1;whiteSpace=wrap;html=1;" parent="HI9lY-tAYUMj1OGBsxrr-1" vertex="1">
          <mxGeometry x="356" y="170" width="120" height="60" as="geometry" />
        </mxCell>
        <mxCell id="HI9lY-tAYUMj1OGBsxrr-6" value="좌석 관리&lt;div&gt;DB&lt;/div&gt;" style="shape=cylinder3;whiteSpace=wrap;html=1;boundedLbl=1;backgroundOutline=1;size=15;" parent="HI9lY-tAYUMj1OGBsxrr-1" vertex="1">
          <mxGeometry x="612" y="160" width="100" height="80" as="geometry" />
        </mxCell>
        <mxCell id="HI9lY-tAYUMj1OGBsxrr-7" value="" style="endArrow=none;dashed=1;html=1;dashPattern=1 3;strokeWidth=2;rounded=0;fontSize=12;startSize=8;endSize=8;curved=1;entryX=0.5;entryY=1;entryDx=0;entryDy=0;" parent="HI9lY-tAYUMj1OGBsxrr-1" target="HI9lY-tAYUMj1OGBsxrr-5" edge="1">
          <mxGeometry width="50" height="50" relative="1" as="geometry">
            <mxPoint x="420" y="700" as="sourcePoint" />
            <mxPoint x="396" y="420" as="targetPoint" />
          </mxGeometry>
        </mxCell>
        <mxCell id="HI9lY-tAYUMj1OGBsxrr-8" value="" style="endArrow=none;dashed=1;html=1;rounded=0;fontSize=12;startSize=8;endSize=8;curved=1;entryX=0.5;entryY=1;entryDx=0;entryDy=0;entryPerimeter=0;" parent="HI9lY-tAYUMj1OGBsxrr-1" source="HI9lY-tAYUMj1OGBsxrr-12" target="HI9lY-tAYUMj1OGBsxrr-6" edge="1">
          <mxGeometry width="50" height="50" relative="1" as="geometry">
            <mxPoint x="660.7368421052631" y="320" as="sourcePoint" />
            <mxPoint x="392" y="500" as="targetPoint" />
          </mxGeometry>
        </mxCell>
        <mxCell id="HI9lY-tAYUMj1OGBsxrr-9" value="" style="rounded=0;whiteSpace=wrap;html=1;" parent="HI9lY-tAYUMj1OGBsxrr-1" vertex="1">
          <mxGeometry x="403.5" y="290" width="25" height="320" as="geometry" />
        </mxCell>
        <mxCell id="HI9lY-tAYUMj1OGBsxrr-10" value="&lt;span style=&quot;text-align: left; background-color: rgb(251, 251, 251);&quot;&gt;1: extendBtn(id, location, seatNum)&lt;/span&gt;" style="html=1;verticalAlign=bottom;endArrow=block;curved=0;rounded=0;fontSize=12;startSize=8;endSize=8;entryX=0.088;entryY=0.064;entryDx=0;entryDy=0;entryPerimeter=0;" parent="HI9lY-tAYUMj1OGBsxrr-1" edge="1" target="HI9lY-tAYUMj1OGBsxrr-9">
          <mxGeometry width="80" relative="1" as="geometry">
            <mxPoint x="159" y="310" as="sourcePoint" />
            <mxPoint x="369" y="310" as="targetPoint" />
          </mxGeometry>
        </mxCell>
        <mxCell id="HI9lY-tAYUMj1OGBsxrr-11" value="" style="endArrow=none;dashed=1;html=1;rounded=0;fontSize=12;startSize=8;endSize=8;curved=1;entryX=0.5;entryY=1;entryDx=0;entryDy=0;entryPerimeter=0;" parent="HI9lY-tAYUMj1OGBsxrr-1" source="-m4m8Yed8xDFs7L5pCTj-3" target="HI9lY-tAYUMj1OGBsxrr-12" edge="1">
          <mxGeometry width="50" height="50" relative="1" as="geometry">
            <mxPoint x="662" y="720" as="sourcePoint" />
            <mxPoint x="662" y="240" as="targetPoint" />
          </mxGeometry>
        </mxCell>
        <mxCell id="HI9lY-tAYUMj1OGBsxrr-12" value="" style="rounded=0;whiteSpace=wrap;html=1;" parent="HI9lY-tAYUMj1OGBsxrr-1" vertex="1">
          <mxGeometry x="649.5" y="313" width="25" height="30" as="geometry" />
        </mxCell>
        <mxCell id="HI9lY-tAYUMj1OGBsxrr-13" value="&lt;span style=&quot;text-align: left; background-color: rgb(251, 251, 251);&quot;&gt;6: realExtendBtn(id, location, seatNum)&lt;/span&gt;" style="html=1;verticalAlign=bottom;endArrow=block;curved=0;rounded=0;fontSize=12;startSize=8;endSize=8;entryX=0.032;entryY=0.624;entryDx=0;entryDy=0;entryPerimeter=0;" parent="HI9lY-tAYUMj1OGBsxrr-1" edge="1" target="HI9lY-tAYUMj1OGBsxrr-9">
          <mxGeometry x="0.0019" width="80" relative="1" as="geometry">
            <mxPoint x="169" y="490" as="sourcePoint" />
            <mxPoint x="399" y="490" as="targetPoint" />
            <mxPoint as="offset" />
          </mxGeometry>
        </mxCell>
        <mxCell id="HI9lY-tAYUMj1OGBsxrr-14" value="9: 정상적으로 연장되었음을 공지" style="html=1;verticalAlign=bottom;endArrow=block;curved=0;rounded=0;fontSize=12;startSize=8;endSize=8;entryX=1.067;entryY=0.812;entryDx=0;entryDy=0;entryPerimeter=0;exitX=-0.05;exitY=0.844;exitDx=0;exitDy=0;exitPerimeter=0;" parent="HI9lY-tAYUMj1OGBsxrr-1" target="HI9lY-tAYUMj1OGBsxrr-17" edge="1" source="HI9lY-tAYUMj1OGBsxrr-9">
          <mxGeometry x="-0.0006" width="80" relative="1" as="geometry">
            <mxPoint x="399" y="560" as="sourcePoint" />
            <mxPoint x="135" y="560" as="targetPoint" />
            <mxPoint as="offset" />
          </mxGeometry>
        </mxCell>
        <mxCell id="HI9lY-tAYUMj1OGBsxrr-15" value="" style="endArrow=none;dashed=1;html=1;rounded=0;fontSize=12;startSize=8;endSize=8;curved=1;entryX=0.5;entryY=1;entryDx=0;entryDy=0;" parent="HI9lY-tAYUMj1OGBsxrr-1" target="HI9lY-tAYUMj1OGBsxrr-17" edge="1">
          <mxGeometry width="50" height="50" relative="1" as="geometry">
            <mxPoint x="154" y="700" as="sourcePoint" />
            <mxPoint x="154" y="415" as="targetPoint" />
          </mxGeometry>
        </mxCell>
        <mxCell id="HI9lY-tAYUMj1OGBsxrr-16" value="" style="endArrow=none;dashed=1;html=1;rounded=0;fontSize=12;startSize=8;endSize=8;curved=1;" parent="HI9lY-tAYUMj1OGBsxrr-1" target="HI9lY-tAYUMj1OGBsxrr-17" edge="1">
          <mxGeometry width="50" height="50" relative="1" as="geometry">
            <mxPoint x="154" y="385" as="sourcePoint" />
            <mxPoint x="153.5" y="260" as="targetPoint" />
          </mxGeometry>
        </mxCell>
        <mxCell id="HI9lY-tAYUMj1OGBsxrr-17" value="" style="rounded=0;whiteSpace=wrap;html=1;" parent="HI9lY-tAYUMj1OGBsxrr-1" vertex="1">
          <mxGeometry x="139" y="290" width="30" height="330" as="geometry" />
        </mxCell>
        <mxCell id="HI9lY-tAYUMj1OGBsxrr-18" value="2: getSeat(&lt;span style=&quot;text-align: left; background-color: rgb(251, 251, 251);&quot;&gt;location, seatNum, userId&lt;/span&gt;)" style="html=1;verticalAlign=bottom;endArrow=block;curved=0;rounded=0;fontSize=12;startSize=8;endSize=8;entryX=0.052;entryY=0.4;entryDx=0;entryDy=0;exitX=1.14;exitY=0.109;exitDx=0;exitDy=0;exitPerimeter=0;entryPerimeter=0;" parent="HI9lY-tAYUMj1OGBsxrr-1" source="HI9lY-tAYUMj1OGBsxrr-9" target="HI9lY-tAYUMj1OGBsxrr-12" edge="1">
          <mxGeometry x="0.0001" width="80" relative="1" as="geometry">
            <mxPoint x="462.5" y="330" as="sourcePoint" />
            <mxPoint x="630" y="330" as="targetPoint" />
            <mxPoint as="offset" />
          </mxGeometry>
        </mxCell>
        <mxCell id="HI9lY-tAYUMj1OGBsxrr-23" value="5: 30분 이상 남았을 경우,&lt;div&gt;연장 기능 사용 불가능하다고 공지&lt;/div&gt;&lt;div&gt;30분 이내라면, 시간 연장할 건지 질문&amp;nbsp;&lt;/div&gt;" style="html=1;verticalAlign=bottom;endArrow=block;curved=0;rounded=0;fontSize=12;startSize=8;endSize=8;" parent="HI9lY-tAYUMj1OGBsxrr-1" edge="1">
          <mxGeometry x="0.0025" width="80" relative="1" as="geometry">
            <mxPoint x="399" y="430" as="sourcePoint" />
            <mxPoint x="169" y="430" as="targetPoint" />
            <mxPoint as="offset" />
          </mxGeometry>
        </mxCell>
        <mxCell id="-m4m8Yed8xDFs7L5pCTj-0" value="" style="html=1;points=[[0,0,0,0,5],[0,1,0,0,-5],[1,0,0,0,5],[1,1,0,0,-5]];perimeter=orthogonalPerimeter;outlineConnect=0;targetShapes=umlLifeline;portConstraint=eastwest;newEdgeStyle={&quot;curved&quot;:0,&quot;rounded&quot;:0};" parent="HI9lY-tAYUMj1OGBsxrr-1" vertex="1">
          <mxGeometry x="423.5" y="382" width="10" height="40" as="geometry" />
        </mxCell>
        <mxCell id="-m4m8Yed8xDFs7L5pCTj-1" value="4: 잔여 시간이 30분 이내인지 확인" style="html=1;align=left;spacingLeft=2;endArrow=block;rounded=0;edgeStyle=orthogonalEdgeStyle;curved=0;rounded=0;fontSize=12;startSize=8;endSize=8;" parent="HI9lY-tAYUMj1OGBsxrr-1" target="-m4m8Yed8xDFs7L5pCTj-0" edge="1">
          <mxGeometry relative="1" as="geometry">
            <mxPoint x="428.5" y="360.02" as="sourcePoint" />
            <Array as="points">
              <mxPoint x="459" y="360" />
              <mxPoint x="459" y="412" />
            </Array>
            <mxPoint x="431" y="412.0443902439025" as="targetPoint" />
          </mxGeometry>
        </mxCell>
        <mxCell id="-m4m8Yed8xDFs7L5pCTj-2" value="&lt;span style=&quot;text-align: left; background-color: rgb(251, 251, 251);&quot;&gt;7: updateRentedTime(location, seatNum)&lt;/span&gt;" style="html=1;verticalAlign=bottom;endArrow=block;curved=0;rounded=0;fontSize=12;startSize=8;endSize=8;exitX=1.14;exitY=0.109;exitDx=0;exitDy=0;exitPerimeter=0;" parent="HI9lY-tAYUMj1OGBsxrr-1" edge="1">
          <mxGeometry x="0.0001" width="80" relative="1" as="geometry">
            <mxPoint x="428.5" y="530" as="sourcePoint" />
            <mxPoint x="649" y="530" as="targetPoint" />
            <mxPoint as="offset" />
          </mxGeometry>
        </mxCell>
        <mxCell id="-m4m8Yed8xDFs7L5pCTj-4" value="" style="endArrow=none;dashed=1;html=1;rounded=0;fontSize=12;startSize=8;endSize=8;curved=1;entryX=0.5;entryY=1;entryDx=0;entryDy=0;entryPerimeter=0;" parent="HI9lY-tAYUMj1OGBsxrr-1" target="-m4m8Yed8xDFs7L5pCTj-3" edge="1">
          <mxGeometry width="50" height="50" relative="1" as="geometry">
            <mxPoint x="662" y="690" as="sourcePoint" />
            <mxPoint x="662" y="343" as="targetPoint" />
          </mxGeometry>
        </mxCell>
        <mxCell id="-m4m8Yed8xDFs7L5pCTj-3" value="" style="rounded=0;whiteSpace=wrap;html=1;" parent="HI9lY-tAYUMj1OGBsxrr-1" vertex="1">
          <mxGeometry x="649.5" y="516" width="25" height="44" as="geometry" />
        </mxCell>
        <mxCell id="60jkX5NaYWEzBlHCFv2E-0" value="3: getRentTime()" style="html=1;verticalAlign=bottom;endArrow=open;dashed=1;endSize=8;curved=0;rounded=0;fontSize=12;exitX=0;exitY=0.75;exitDx=0;exitDy=0;entryX=1.02;entryY=0.276;entryDx=0;entryDy=0;entryPerimeter=0;" edge="1" parent="HI9lY-tAYUMj1OGBsxrr-1" source="HI9lY-tAYUMj1OGBsxrr-12">
          <mxGeometry x="-0.0037" y="20" relative="1" as="geometry">
            <mxPoint x="663.5" y="334.76" as="sourcePoint" />
            <mxPoint x="428.5" y="334.76" as="targetPoint" />
            <mxPoint as="offset" />
          </mxGeometry>
        </mxCell>
        <mxCell id="60jkX5NaYWEzBlHCFv2E-1" value="8: 연장 성공 전송" style="html=1;verticalAlign=bottom;endArrow=open;dashed=1;endSize=8;curved=0;rounded=0;fontSize=12;entryX=1.02;entryY=0.276;entryDx=0;entryDy=0;entryPerimeter=0;" edge="1" parent="HI9lY-tAYUMj1OGBsxrr-1">
          <mxGeometry x="-0.0037" y="20" relative="1" as="geometry">
            <mxPoint x="649" y="545" as="sourcePoint" />
            <mxPoint x="428" y="544.76" as="targetPoint" />
            <mxPoint as="offset" />
          </mxGeometry>
        </mxCell>
      </root>
    </mxGraphModel>
  </diagram>
</mxfile>
